<svg width="287" height="96" viewBox="0 0 287 96" fill="none" xmlns="http://www.w3.org/2000/svg">
<g filter="url(#filter0_d_115_230)">
<path d="M119.381 2.37688C131.516 0.362922 158.912 0.158363 169.707 1.97697C220.442 10.5238 214.467 106.806 277.201 103.491C334.457 100.466 -59.6682 103.894 13.8001 102.454C87.2685 101.013 69.3031 10.6882 119.381 2.37688Z" fill="url(#paint0_linear_115_230)"/>
<path d="M119.422 2.62351C125.469 1.6198 135.337 1.06524 145.048 0.989706C154.762 0.914164 164.291 1.31805 169.666 2.2235C182.263 4.34561 191.351 11.9123 198.884 22.0595C205.19 30.5534 210.389 40.8319 215.638 51.2091C216.664 53.2386 217.693 55.2719 218.732 57.2964C225.076 69.6578 231.812 81.6843 240.9 90.4104C246.484 95.7717 252.955 99.8864 260.763 102.073C257.435 102.046 253.79 102.023 249.869 102.005C222.118 101.879 180.515 101.979 139.42 102.128C121.235 102.194 103.149 102.27 86.4065 102.34C65.3137 102.429 46.3534 102.508 32.0129 102.548C26.2512 102.564 21.2359 102.574 17.128 102.575C33.7762 101.604 45.5236 95.863 54.42 87.5604C63.8878 78.7244 70.1114 67.0001 75.5891 55.0962C76.8228 52.4152 78.0183 49.7261 79.2043 47.0584C83.2915 37.865 87.2652 28.9268 92.2962 21.4573C98.7773 11.8348 106.991 4.68662 119.422 2.62351ZM277.188 103.242C272.984 103.464 269.091 103.237 265.471 102.618C271.603 102.684 276.327 102.773 279.299 102.887C280.058 102.916 280.701 102.947 281.223 102.98C280.293 103.061 278.957 103.148 277.188 103.242Z" stroke="#7582F4" stroke-opacity="0.5" stroke-width="0.5"/>
</g>
<defs>
<filter id="filter0_d_115_230" x="0.635681" y="0.730789" width="286.273" height="110.844" filterUnits="userSpaceOnUse" color-interpolation-filters="sRGB">
<feFlood flood-opacity="0" result="BackgroundImageFix"/>
<feColorMatrix in="SourceAlpha" type="matrix" values="0 0 0 0 0 0 0 0 0 0 0 0 0 0 0 0 0 0 127 0" result="hardAlpha"/>
<feOffset dy="4"/>
<feGaussianBlur stdDeviation="2"/>
<feComposite in2="hardAlpha" operator="out"/>
<feColorMatrix type="matrix" values="0 0 0 0 0.458824 0 0 0 0 0.509804 0 0 0 0 0.956863 0 0 0 1 0"/>
<feBlend mode="normal" in2="BackgroundImageFix" result="effect1_dropShadow_115_230"/>
<feBlend mode="normal" in="SourceGraphic" in2="effect1_dropShadow_115_230" result="shape"/>
</filter>
<linearGradient id="paint0_linear_115_230" x1="122.457" y1="32.602" x2="122.457" y2="123.845" gradientUnits="userSpaceOnUse">
<stop stop-color="#262C51"/>
<stop offset="1" stop-color="#3E3F74"/>
</linearGradient>
</defs>
</svg>
